<svg xmlns="http://www.w3.org/2000/svg" width="165.2" height="39" viewBox="0 0 165.2 39"><defs><style>.a{fill:#004586;}.a,.b{fill-rule:evenodd;}.b{fill:#222;}</style></defs><g transform="translate(-1291 -264)"><g transform="translate(1291 264)"><path class="a" d="M1760.086,940c-3.257,0-6.086,2.429-6.086,7.857,0,4.229,2.171,7.657,6.086,7.657,3.771,0,6.114-3.086,6.114-7.657C1766.2,943.6,1764.457,940,1760.086,940Z" transform="translate(-1740.771 -920.686)"/><path class="a" d="M1329.714,266.314l-11.886,10.2-4.371-3.486L1322,264h-27.171a3.8,3.8,0,0,0-3.829,3.8v31.371a3.829,3.829,0,0,0,3.829,3.829H1305.2c-4.143-2.114-6.486-6.743-6.486-12.114,0-7.371,4.429-13.343,11.8-13.343s11.943,5.971,11.943,13.343c0,5.371-2.429,10-6.6,12.114H1326.2a3.829,3.829,0,0,0,3.828-3.829V267.8A3.742,3.742,0,0,0,1329.714,266.314Z" transform="translate(-1291 -264)"/><path class="a" d="M4447.514,476,4442,480.771l1.229,1.629,6-4.2Z" transform="translate(-4351.971 -469.943)"/><path class="b" d="M2989.372,490.571a18.117,18.117,0,0,1,2.171,1.943c.743.771,1.486,1.571,2.229,2.457.714.914,1.429,1.8,2.086,2.714.629.914,1.2,1.8,1.657,2.571H2993.8a25.925,25.925,0,0,0-1.629-2.429c-.629-.829-1.286-1.6-1.943-2.371a28.22,28.22,0,0,0-2.085-2.057,13.613,13.613,0,0,0-2-1.6v8.457H2983V474.514l3.143-.514v16.029c.543-.543,1.171-1.143,1.8-1.8.657-.629,1.286-1.314,1.943-1.971q.943-1.029,1.8-1.971c.572-.629,1.029-1.171,1.457-1.629h3.685c-.514.571-1.085,1.171-1.686,1.857-.628.686-1.257,1.343-1.914,2.029-.628.714-1.314,1.4-1.971,2.057-.657.714-1.314,1.371-1.886,1.971Z" transform="translate(-2934.657 -468)"/><path class="b" d="M3602,764.886c.715-.171,1.686-.371,2.886-.571A22.109,22.109,0,0,1,3609,764a9.516,9.516,0,0,1,3.514.571,5.713,5.713,0,0,1,2.229,1.657,6.809,6.809,0,0,1,1.143,2.571,14.676,14.676,0,0,1,.343,3.286v9.886h-3.143v-9.2a18.7,18.7,0,0,0-.2-2.771,5.513,5.513,0,0,0-.743-1.886,3.118,3.118,0,0,0-1.372-1.029,6.281,6.281,0,0,0-2.085-.314c-.343,0-.686,0-1.057.029s-.714.029-1.028.086c-.343.029-.629.086-.886.114-.257.057-.457.086-.571.114v14.857H3602Z" transform="translate(-3535.971 -749.714)"/><path class="b" d="M4986.343,505.6a6.028,6.028,0,0,1-4.114-1.257,4.865,4.865,0,0,1-1.229-3.686V479.514l3.143-.514v21.143a4.2,4.2,0,0,0,.143,1.286,1.769,1.769,0,0,0,.428.829,2.066,2.066,0,0,0,.83.429,8.331,8.331,0,0,0,1.256.286Z" transform="translate(-4875.571 -472.857)"/><path class="b" d="M5284.372,491.371a8.421,8.421,0,0,0-1.657-.914,6.367,6.367,0,0,0-2.372-.429,5.423,5.423,0,0,0-2.286.457,4.414,4.414,0,0,0-1.6,1.371,5.834,5.834,0,0,0-.885,2.057,11.707,11.707,0,0,0-.286,2.543,6.725,6.725,0,0,0,1.542,4.743,5.218,5.218,0,0,0,4.058,1.686,11.8,11.8,0,0,0,2.171-.143,5.538,5.538,0,0,0,1.315-.229Zm0-11.857,3.142-.514v25.743a28.041,28.041,0,0,1-2.771.629,22.492,22.492,0,0,1-3.886.286,9.822,9.822,0,0,1-3.657-.629,8.528,8.528,0,0,1-2.771-1.829,7.348,7.348,0,0,1-1.771-2.914,10.641,10.641,0,0,1-.657-3.829,11.8,11.8,0,0,1,.543-3.714,8.142,8.142,0,0,1,1.543-2.914,6.939,6.939,0,0,1,2.514-1.914,8.208,8.208,0,0,1,3.343-.657,8.091,8.091,0,0,1,2.714.4,8.387,8.387,0,0,1,1.715.771Z" transform="translate(-5158.257 -472.857)"/><path class="b" d="M6012.229,799.086c-.714.172-1.657.371-2.857.571a22.117,22.117,0,0,1-4.115.314,8.571,8.571,0,0,1-3.428-.6,5.444,5.444,0,0,1-2.229-1.657,6.506,6.506,0,0,1-1.229-2.571,14.565,14.565,0,0,1-.372-3.257V782h3.143v9.2a7.868,7.868,0,0,0,1.029,4.6,4.023,4.023,0,0,0,3.429,1.4c.314,0,.657,0,1.028-.029s.714-.086,1.028-.114.6-.057.886-.086c.228-.057.429-.086.542-.114V782h3.143Z" transform="translate(-5863.515 -767.2)"/><path class="b" d="M6643.457,781.8a6.352,6.352,0,0,0,2.886-.514,1.752,1.752,0,0,0,.914-1.629,2.149,2.149,0,0,0-.914-1.829,16.168,16.168,0,0,0-3.028-1.514c-.658-.286-1.314-.543-1.915-.857a5.6,5.6,0,0,1-1.629-.971,4.024,4.024,0,0,1-1.085-1.4,4.307,4.307,0,0,1-.4-2,4.528,4.528,0,0,1,1.714-3.714,7.349,7.349,0,0,1,4.714-1.371c.514,0,.971.057,1.485.086.514.057.943.143,1.4.2.428.114.8.171,1.143.257.314.114.571.171.743.257l-.571,2.714a12.351,12.351,0,0,0-1.6-.6,11.242,11.242,0,0,0-2.6-.257,4.937,4.937,0,0,0-2.314.514,1.821,1.821,0,0,0-.972,1.657,1.913,1.913,0,0,0,.229,1,2.232,2.232,0,0,0,.685.8,6.759,6.759,0,0,0,1.115.657c.428.2.971.4,1.628.657a17.046,17.046,0,0,1,2.229.914,6.49,6.49,0,0,1,1.714,1.086,4.1,4.1,0,0,1,1.028,1.457,5.193,5.193,0,0,1,.372,2.114,4.188,4.188,0,0,1-1.8,3.686,8.871,8.871,0,0,1-5.171,1.257,13.812,13.812,0,0,1-3.657-.371,15.763,15.763,0,0,1-1.8-.6l.572-2.714c.372.143.971.343,1.743.6a9.348,9.348,0,0,0,3.143.429Z" transform="translate(-6485.228 -751.657)"/><path class="a" d="M4264.542,770.257a10.6,10.6,0,0,1-.628,3.8,9.182,9.182,0,0,1-1.686,2.914,8.305,8.305,0,0,1-9.286,1.857,7.73,7.73,0,0,1-2.6-1.857,8.725,8.725,0,0,1-1.714-2.914,10.59,10.59,0,0,1-.629-3.8,10.809,10.809,0,0,1,.629-3.8,8.726,8.726,0,0,1,1.714-2.914,7.431,7.431,0,0,1,2.6-1.886,8.759,8.759,0,0,1,6.657,0,7.816,7.816,0,0,1,2.628,1.886,9.183,9.183,0,0,1,1.686,2.914,10.82,10.82,0,0,1,.628,3.8Zm-3.285,0a7.722,7.722,0,0,0-1.343-4.743,4.422,4.422,0,0,0-3.657-1.714,4.277,4.277,0,0,0-3.6,1.714,7.545,7.545,0,0,0-1.372,4.743,7.4,7.4,0,0,0,1.372,4.714,4.227,4.227,0,0,0,3.6,1.743,4.369,4.369,0,0,0,3.657-1.743,7.575,7.575,0,0,0,1.343-4.714Z" transform="translate(-4163.515 -746.8)"/></g></g></svg>