<?xml version="1.0" standalone="no"?>
<!DOCTYPE svg PUBLIC "-//W3C//DTD SVG 20010904//EN"
 "http://www.w3.org/TR/2001/REC-SVG-20010904/DTD/svg10.dtd">
<svg version="1.0" xmlns="http://www.w3.org/2000/svg"
 width="600.000000pt" height="200.000000pt" viewBox="0 0 600.000000 200.000000"
 preserveAspectRatio="xMidYMid meet">

<g transform="translate(0.000000,200.000000) scale(0.100000,-0.100000)"
fill="#000000" stroke="none">
<path d="M0 1757 l0 -243 133 -26 c72 -14 134 -24 135 -23 2 2 -22 123 -54
269 l-58 266 -78 0 -78 0 0 -243z"/>
<path d="M170 1997 c0 -12 109 -500 113 -503 2 -2 26 74 54 169 l49 174 -63
81 c-63 81 -65 82 -109 82 -24 0 -44 -1 -44 -3z"/>
<path d="M289 1983 c24 -43 104 -135 124 -142 56 -21 570 -132 577 -125 4 5 6
71 3 147 l-6 137 -83 0 c-46 0 -84 -2 -84 -4 0 -3 39 -64 86 -136 47 -73 83
-134 81 -136 -2 -3 -46 58 -96 136 l-91 140 -160 0 -160 0 -39 -77 c-48 -93
-53 -92 -11 0 17 37 30 69 30 72 0 3 -41 5 -90 5 -83 0 -90 -1 -81 -17z"/>
<path d="M1005 1868 c10 -184 7 -173 65 -273 29 -49 80 -137 113 -195 l61
-104 42 339 c24 187 43 346 44 353 0 8 -19 12 -63 12 l-62 0 -89 -140 c-49
-78 -90 -139 -93 -136 -3 2 22 46 55 98 32 51 71 112 86 136 l26 42 -96 0 -97
0 8 -132z"/>
<path d="M1321 1813 c-12 -104 -31 -268 -43 -366 l-21 -178 -224 -206 c-122
-113 -223 -208 -223 -211 0 -3 13 6 28 21 l28 27 722 -2 c672 -3 722 -2 722
14 0 9 3 19 8 21 4 3 6 -71 4 -165 -2 -119 1 -174 9 -184 9 -11 89 -21 89 -11
0 1 -9 20 -20 42 -54 106 6 238 109 238 74 0 119 -47 128 -135 5 -49 -2 -77
-35 -140 -2 -5 15 -8 37 -8 30 0 43 5 51 19 5 11 10 88 11 173 0 84 2 149 5
143 3 -7 377 -9 1101 -7 955 2 1099 4 1113 17 9 8 19 13 22 10 3 -3 59 44 125
104 l119 108 125 -15 124 -15 265 62 c146 34 273 64 283 67 16 5 17 32 17 385
l0 379 -2328 0 -2329 0 -22 -187z m572 -202 c50 -12 52 -15 37 -51 -11 -26
-16 -29 -39 -22 -38 10 -150 9 -153 -3 -2 -6 31 -14 72 -18 41 -4 91 -16 110
-25 30 -14 35 -23 38 -55 2 -21 -2 -45 -9 -53 -37 -45 -147 -64 -251 -45 -88
17 -93 21 -71 60 14 24 23 30 38 26 60 -17 135 -27 160 -21 45 11 16 27 -71
37 -44 6 -89 17 -101 25 -67 43 -44 117 47 145 35 10 147 10 193 0z m1732 -10
c88 -40 119 -123 73 -190 -40 -59 -80 -76 -183 -76 -104 0 -156 19 -186 69
-35 57 -17 149 34 178 73 42 193 51 262 19z m579 8 c22 -6 53 -24 69 -40 27
-28 29 -34 25 -94 -4 -69 -19 -94 -73 -123 -59 -32 -285 -15 -285 21 0 7 8 22
18 34 16 21 19 22 57 8 61 -22 128 -19 156 6 l24 21 -25 -6 c-66 -16 -79 -17
-119 -6 -55 14 -91 50 -91 88 0 75 130 123 244 91z m-1904 -39 l0 -40 -50 0
-50 0 0 -95 0 -95 -60 0 -60 0 0 95 0 95 -50 0 -50 0 0 40 0 40 160 0 160 0 0
-40z m150 -43 c0 -95 7 -107 61 -107 58 0 69 18 69 111 l0 79 60 0 60 0 0 -87
c0 -101 -17 -140 -72 -170 -47 -24 -179 -24 -231 1 -54 27 -67 58 -67 166 l0
90 60 0 60 0 0 -83z m584 69 c52 -22 76 -60 76 -121 0 -39 -6 -60 -22 -80 -35
-45 -74 -55 -218 -55 l-130 0 0 135 0 135 130 0 c88 0 141 -4 164 -14z m236
-121 l0 -135 -60 0 -60 0 0 135 0 135 60 0 60 0 0 -135z m640 -30 c0 -25 -1
-25 -80 -25 -79 0 -80 0 -80 25 0 25 1 25 80 25 79 0 80 0 80 -25z m-1220
-518 c0 -2 -18 -18 -40 -36 -32 -26 -44 -30 -55 -21 -16 14 -10 36 13 45 14 5
13 3 -2 -14 -11 -13 -14 -21 -6 -26 6 -4 9 -1 8 7 -2 7 4 13 13 13 9 0 27 8
40 17 26 18 29 20 29 15z"/>
<path d="M3452 1524 c-15 -10 -22 -25 -22 -49 0 -28 6 -37 30 -50 16 -8 42
-15 58 -15 38 0 82 35 82 65 0 53 -97 85 -148 49z"/>
<path d="M4089 1534 c-9 -11 -10 -20 -2 -32 22 -36 93 -26 93 12 0 37 -65 51
-91 20z"/>
<path d="M2858 1534 c-5 -4 -8 -31 -8 -61 l0 -53 59 0 c51 0 62 3 75 22 20 29
20 41 -1 67 -19 22 -110 41 -125 25z"/>
<path d="M405 1806 c-12 -8 -35 -70 -66 -177 -26 -90 -46 -165 -44 -167 2 -2
40 0 84 4 68 5 81 9 77 23 -15 52 -57 284 -54 299 2 9 18 -57 35 -147 18 -90
33 -164 35 -165 5 -4 253 16 257 20 2 2 -67 74 -155 160 -87 86 -143 144 -124
128 19 -16 94 -87 167 -158 99 -97 135 -127 145 -119 7 5 62 50 123 99 82 67
104 90 90 92 -11 2 -137 30 -280 63 -143 32 -262 59 -266 59 -3 0 -13 -6 -24
-14z"/>
<path d="M883 1588 c-62 -50 -110 -94 -108 -97 2 -4 37 -21 77 -38 40 -18 127
-55 193 -84 66 -28 135 -58 154 -66 l34 -15 -15 24 c-8 12 -58 101 -112 196
-53 94 -100 172 -104 172 -4 0 -57 -41 -119 -92z"/>
<path d="M0 1193 c0 -168 2 -304 4 -302 8 8 267 552 264 554 -3 3 -254 55
-264 55 -2 0 -4 -138 -4 -307z"/>
<path d="M625 1473 c-16 -1 -57 -6 -91 -9 l-61 -5 41 -201 41 -200 20 44 c56
124 165 370 165 374 0 4 -69 3 -115 -3z"/>
<path d="M763 1423 c3 -32 14 -160 23 -285 10 -126 22 -228 26 -228 5 0 6 -6
2 -12 -5 -9 -2 -9 9 1 19 15 23 26 5 15 -7 -4 -8 -3 -4 5 4 6 12 9 17 6 11 -8
391 337 381 346 -6 6 -223 104 -421 190 l-44 20 6 -58z"/>
<path d="M352 1453 c-44 -3 -53 -7 -48 -20 7 -16 122 -200 190 -303 l37 -55
-7 45 c-4 25 -19 110 -35 189 -16 79 -29 146 -29 148 0 1 -12 2 -27 1 -16 -1
-52 -3 -81 -5z"/>
<path d="M658 1251 c-49 -114 -88 -213 -88 -218 0 -14 169 -125 180 -118 5 3
12 0 16 -6 4 -8 3 -9 -4 -5 -7 4 -12 5 -12 2 0 -3 8 -10 18 -15 16 -9 17 1 5
192 -7 111 -16 241 -20 290 l-8 87 -87 -209z"/>
<path d="M155 1174 c-103 -214 -125 -267 -115 -277 9 -8 11 -8 7 -1 -4 7 0 15
9 18 8 3 12 2 9 -4 -4 -6 25 -10 77 -10 l83 -1 -35 -19 c-43 -24 -33 -26 14
-3 19 9 33 20 30 25 -3 4 1 5 8 3 8 -3 54 13 103 36 50 23 114 52 143 65 l52
23 -36 58 c-20 32 -78 124 -129 205 l-92 147 -128 -265z"/>
<path d="M5835 1185 c-49 -13 -160 -39 -245 -59 l-155 -37 3 -54 c2 -30 5 -55
7 -55 2 0 117 52 257 115 139 63 246 114 238 114 -8 0 -55 -11 -105 -24z"/>
<path d="M5755 1099 c-132 -61 -255 -117 -273 -124 l-32 -14 31 -51 c30 -49
50 -70 29 -30 -11 20 -9 21 32 19 25 -1 57 5 76 15 17 9 32 14 32 11 0 -2 -21
-16 -47 -29 -96 -49 -97 -34 8 -200 l93 -149 84 174 c148 307 213 453 210 471
-3 15 -40 1 -243 -93z m-257 -194 c-3 -3 -9 2 -12 12 -6 14 -5 15 5 6 7 -7 10
-15 7 -18z"/>
<path d="M5855 835 c-75 -157 -135 -289 -132 -292 4 -3 67 -18 142 -33 l135
-27 0 318 c0 176 -2 319 -3 319 -2 0 -66 -128 -142 -285z"/>
<path d="M5165 1098 c-5 -6 -64 -63 -131 -127 -66 -64 -108 -105 -93 -92 26
22 35 23 138 22 l111 -2 -1 78 c-2 93 -10 135 -24 121z"/>
<path d="M5205 1043 c4 -37 10 -106 14 -153 6 -58 9 -70 10 -38 l1 46 79 4 79
3 -14 -34 c-8 -19 -13 -36 -11 -38 2 -2 16 26 32 62 15 36 26 67 24 69 -2 2
-53 36 -112 75 l-108 72 6 -68z"/>
<path d="M5241 1106 c11 -10 170 -116 174 -116 3 0 5 22 5 49 l0 49 -75 11
c-79 11 -111 14 -104 7z"/>
<path d="M383 937 c-84 -39 -151 -72 -149 -74 1 -2 26 7 53 20 45 21 58 22
139 15 115 -9 124 -6 123 40 -1 75 0 75 -166 -1z"/>
<path d="M568 956 c2 -28 5 -52 6 -53 1 -1 28 -5 61 -9 39 -5 56 -4 52 3 -4 6
-19 9 -34 7 -27 -4 -28 -3 -3 5 27 9 64 -4 55 -20 -4 -5 4 -9 16 -9 28 0 25 2
-77 72 l-81 55 5 -51z"/>
<path d="M4899 883 l-34 -38 38 34 c20 19 37 36 37 38 0 8 -8 0 -41 -34z"/>
<path d="M5411 884 c-6 -15 -10 -29 -7 -31 2 -2 8 6 12 19 7 22 7 22 15 3 7
-17 8 -16 8 8 1 34 -12 35 -28 1z"/>
<path d="M5460 887 c0 -10 4 -17 8 -17 5 0 7 -12 5 -27 -2 -16 9 -91 25 -168
l28 -140 79 3 c44 2 81 4 83 6 3 4 -154 255 -200 320 -17 24 -28 32 -28 23z"/>
<path d="M400 875 c-25 -7 -38 -13 -30 -14 8 0 38 6 65 13 28 8 41 14 30 14
-11 0 -40 -6 -65 -13z"/>
<path d="M2783 882 c-18 -12 -5 -252 14 -252 9 0 13 14 13 43 l1 42 38 -42
c35 -39 71 -56 71 -35 0 5 -16 27 -34 49 l-35 40 29 34 c16 19 29 37 30 42 1
17 -27 5 -60 -28 l-35 -34 0 71 c0 69 -7 86 -32 70z"/>
<path d="M3199 884 c-1 -2 -2 -7 -4 -11 -1 -5 -5 -16 -10 -26 -11 -26 0 -31
29 -12 31 21 34 41 6 48 -11 3 -21 3 -21 1z"/>
<path d="M3333 883 c-18 -7 -18 -224 -1 -241 17 -17 48 -15 48 3 0 8 -4 15
-10 15 -6 0 -10 45 -10 115 0 63 -3 115 -7 114 -5 0 -14 -3 -20 -6z"/>
<path d="M3523 883 c-7 -2 -13 -22 -13 -42 0 -36 -1 -37 -29 -33 -68 10 -108
-91 -60 -152 19 -24 27 -27 73 -24 l51 3 3 128 c1 70 -1 127 -5 126 -4 0 -14
-3 -20 -6z m-13 -168 c0 -51 -2 -55 -23 -55 -31 0 -47 18 -47 51 0 45 10 59
41 59 28 0 29 -1 29 -55z"/>
<path d="M5193 845 c0 -27 2 -38 4 -22 2 15 2 37 0 50 -2 12 -4 0 -4 -28z"/>
<path d="M553 873 c9 -2 25 -2 35 0 9 3 1 5 -18 5 -19 0 -27 -2 -17 -5z"/>
<path d="M508 863 c7 -3 16 -2 19 1 4 3 -2 6 -13 5 -11 0 -14 -3 -6 -6z"/>
<path d="M623 863 c9 -2 25 -2 35 0 9 3 1 5 -18 5 -19 0 -27 -2 -17 -5z"/>
<path d="M328 853 c7 -3 16 -2 19 1 4 3 -2 6 -13 5 -11 0 -14 -3 -6 -6z"/>
<path d="M468 853 c7 -3 16 -2 19 1 4 3 -2 6 -13 5 -11 0 -14 -3 -6 -6z"/>
<path d="M703 853 c9 -2 23 -2 30 0 6 3 -1 5 -18 5 -16 0 -22 -2 -12 -5z"/>
<path d="M80 830 c-19 -11 -30 -19 -25 -19 6 0 26 8 45 19 19 11 31 19 25 19
-5 0 -26 -8 -45 -19z"/>
<path d="M161 836 c-21 -12 -21 -14 -6 -20 10 -3 20 -4 23 -1 3 3 -1 5 -9 5
-8 1 -3 7 11 15 14 8 21 14 15 14 -5 0 -21 -6 -34 -13z"/>
<path d="M288 843 c7 -3 16 -2 19 1 4 3 -2 6 -13 5 -11 0 -14 -3 -6 -6z"/>
<path d="M418 843 c6 -2 18 -2 25 0 6 3 1 5 -13 5 -14 0 -19 -2 -12 -5z"/>
<path d="M768 843 c6 -2 18 -2 25 0 6 3 1 5 -13 5 -14 0 -19 -2 -12 -5z"/>
<path d="M4810 805 c-24 -25 -42 -45 -39 -45 3 0 25 20 49 45 24 25 42 45 39
45 -3 0 -25 -20 -49 -45z"/>
<path d="M4859 813 l-34 -38 38 34 c20 19 37 36 37 38 0 8 -8 0 -41 -34z"/>
<path d="M5441 834 c0 -11 3 -14 6 -6 3 7 2 16 -1 19 -3 4 -6 -2 -5 -13z"/>
<path d="M248 833 c7 -3 16 -2 19 1 4 3 -2 6 -13 5 -11 0 -14 -3 -6 -6z"/>
<path d="M378 833 c7 -3 16 -2 19 1 4 3 -2 6 -13 5 -11 0 -14 -3 -6 -6z"/>
<path d="M338 823 c7 -3 16 -2 19 1 4 3 -2 6 -13 5 -11 0 -14 -3 -6 -6z"/>
<path d="M95 804 c-32 -14 -17 -17 25 -5 14 4 20 9 15 13 -6 3 -23 -1 -40 -8z"/>
<path d="M2448 791 c-30 -27 -33 -34 -33 -89 0 -50 5 -65 24 -85 12 -14 31
-27 42 -30 15 -4 19 0 19 24 0 20 -5 29 -16 29 -20 0 -53 39 -54 63 0 15 17
22 43 18 4 0 7 4 7 10 0 6 7 17 15 25 13 14 17 14 30 0 8 -8 15 -19 15 -25 0
-6 3 -10 8 -10 25 4 42 -3 42 -19 0 -20 -39 -62 -58 -62 -7 0 -12 -13 -12 -29
0 -24 3 -28 20 -24 50 13 81 95 60 157 -25 76 -96 98 -152 47z"/>
<path d="M2963 803 c-9 -3 -13 -31 -13 -89 0 -68 3 -84 15 -84 12 0 15 14 16
63 1 34 1 66 0 70 -1 5 13 7 31 5 l33 -3 3 -68 c2 -58 6 -68 20 -65 14 3 18
16 20 68 2 55 -1 69 -18 88 -20 21 -74 29 -107 15z"/>
<path d="M3157 790 c-63 -50 -32 -160 44 -160 45 0 79 39 79 90 0 76 -67 114
-123 70z m73 -30 c24 -24 25 -48 4 -78 -17 -24 -43 -29 -62 -10 -17 17 -15 74
4 92 20 21 30 20 54 -4z"/>
<path d="M3793 795 c-37 -26 -30 -61 17 -85 53 -27 54 -53 3 -48 -29 2 -38 -1
-38 -12 0 -19 80 -26 101 -9 8 6 14 24 14 40 0 23 -7 32 -40 49 -22 11 -40 24
-40 29 0 13 25 20 50 14 18 -5 21 -2 18 13 -4 25 -55 30 -85 9z"/>
<path d="M5417 794 c-15 -8 -33 -12 -40 -8 -6 4 -9 4 -5 -1 4 -4 1 -13 -7 -19
-16 -13 -118 -246 -110 -254 6 -7 243 13 251 21 4 4 -1 46 -10 94 -41 206 -34
191 -79 167z"/>
<path d="M208 793 c7 -3 16 -2 19 1 4 3 -2 6 -13 5 -11 0 -14 -3 -6 -6z"/>
<path d="M3590 745 c0 -95 23 -120 106 -113 l39 3 3 83 c3 77 2 82 -18 82 -18
0 -20 -6 -20 -70 0 -66 -1 -70 -23 -70 -36 0 -47 19 -47 82 0 51 -2 58 -20 58
-18 0 -20 -7 -20 -55z"/>
<path d="M5278 721 l-48 -26 1 -55 c2 -113 10 -113 58 -1 24 56 42 103 40 104
-2 2 -25 -8 -51 -22z"/>
<path d="M5128 637 c-43 -23 -78 -44 -78 -47 0 -5 172 -82 175 -78 5 8 -8 168
-14 168 -3 -1 -41 -20 -83 -43z"/>
<path d="M4943 537 l-72 -41 31 -56 c18 -30 43 -74 57 -97 l26 -41 118 96 119
97 -89 42 c-48 23 -95 41 -103 41 -8 0 -47 -18 -87 -41z"/>
<path d="M2320 495 c0 -25 5 -45 10 -45 6 0 10 5 10 11 0 8 5 8 15 -1 9 -8 15
-9 15 -2 0 6 -5 14 -10 17 -8 5 -7 12 2 23 11 13 10 15 -4 9 -13 -5 -18 -1
-18 13 0 11 -4 20 -10 20 -5 0 -10 -20 -10 -45z"/>
<path d="M2521 498 c-1 -27 3 -48 7 -48 4 0 6 17 4 38 -5 58 -10 62 -11 10z"/>
<path d="M3050 530 c0 -5 5 -10 10 -10 6 0 10 5 10 10 0 6 -4 10 -10 10 -5 0
-10 -4 -10 -10z"/>
<path d="M3770 501 c0 -22 5 -43 10 -46 6 -4 10 12 10 39 0 25 -4 46 -10 46
-5 0 -10 -18 -10 -39z"/>
<path d="M3082 493 c2 -29 8 -38 23 -40 11 -2 14 0 8 3 -16 7 -17 44 -2 44 6
0 4 7 -5 15 -22 23 -27 18 -24 -22z"/>
<path d="M3362 493 c2 -29 8 -38 23 -40 11 -2 14 0 8 3 -15 7 -17 41 -3 46 6
2 1 9 -11 16 -19 12 -20 11 -17 -25z"/>
<path d="M3802 493 c2 -29 8 -38 23 -40 11 -2 14 0 8 3 -14 6 -18 44 -5 44 4
0 16 -7 27 -16 17 -13 18 -16 5 -24 -13 -8 -13 -10 2 -10 25 0 34 21 14 36
-13 9 -14 13 -4 17 7 2 10 8 6 12 -4 4 -14 3 -22 -4 -11 -9 -17 -8 -29 4 -24
23 -28 19 -25 -22z"/>
<path d="M5592 523 c-60 -4 -64 -5 -59 -26 3 -12 18 -86 33 -165 15 -78 28
-141 30 -139 2 2 26 79 53 170 46 160 48 167 27 165 -11 -1 -50 -3 -84 -5z"/>
<path d="M5715 518 c2 -7 27 -119 55 -248 28 -129 53 -243 56 -252 5 -15 18
-18 90 -18 l84 0 0 234 c0 215 -1 235 -17 240 -10 2 -67 14 -128 26 -60 12
-118 24 -127 26 -12 4 -16 1 -13 -8z"/>
<path d="M2386 512 c-10 -9 -6 -62 4 -62 6 0 10 11 10 25 0 34 18 32 23 -2 4
-22 5 -20 3 6 -1 24 -6 35 -18 37 -9 1 -19 -1 -22 -4z"/>
<path d="M2450 499 c-13 -23 1 -49 26 -49 20 0 34 32 23 53 -13 23 -36 21 -49
-4z m38 -16 c-4 -22 -22 -20 -26 1 -2 10 3 16 13 16 10 0 15 -7 13 -17z"/>
<path d="M2551 506 c-10 -11 -8 -17 6 -25 16 -9 16 -12 3 -21 -13 -8 -13 -10
2 -10 26 0 33 21 13 37 -11 7 -13 13 -7 13 7 0 12 5 12 10 0 15 -16 12 -29 -4z"/>
<path d="M2740 505 c-18 -22 -8 -50 20 -53 22 -2 23 -1 8 8 -21 13 -24 40 -5
40 7 0 17 -10 22 -22 15 -33 49 -30 53 5 4 31 -20 46 -42 28 -10 -8 -16 -9
-21 -1 -9 14 -20 13 -35 -5z m88 -22 c-4 -22 -22 -20 -26 1 -2 10 3 16 13 16
10 0 15 -7 13 -17z"/>
<path d="M2863 513 c-15 -5 -17 -49 -3 -58 6 -4 10 5 10 19 0 14 5 26 10 26 6
0 10 -12 10 -26 0 -14 4 -23 10 -19 6 3 10 15 10 26 0 29 18 23 23 -8 4 -21 4
-20 3 7 -1 31 -4 35 -31 36 -16 0 -36 -1 -42 -3z"/>
<path d="M2963 513 c-15 -5 -17 -49 -3 -58 6 -4 10 5 10 19 0 14 5 26 10 26 6
0 10 -12 10 -26 0 -14 4 -23 10 -19 6 3 10 16 10 28 0 24 15 13 23 -18 3 -11
5 -4 4 15 -2 31 -5 35 -32 36 -16 0 -36 -1 -42 -3z"/>
<path d="M3136 513 c-3 -3 -6 -20 -6 -37 0 -32 14 -26 23 9 4 18 5 18 6 -2 2
-31 21 -39 21 -9 0 14 5 26 10 26 6 0 10 -11 10 -25 0 -14 5 -25 10 -25 14 0
12 47 -2 56 -17 10 -64 15 -72 7z"/>
<path d="M3234 506 c-11 -28 0 -51 26 -53 l25 -3 -25 12 -25 11 23 5 c15 2 22
9 20 20 -4 22 -36 28 -44 8z"/>
<path d="M3303 513 c-15 -6 -18 -63 -3 -63 6 0 10 11 10 25 0 14 5 25 10 25 6
0 10 -11 10 -25 0 -14 5 -25 10 -25 14 0 13 43 -2 58 -13 13 -16 13 -35 5z"/>
<path d="M3547 513 c-11 -10 -8 -63 3 -63 6 0 10 11 10 25 0 14 5 25 11 25 5
0 7 5 4 10 -7 12 -19 13 -28 3z"/>
<path d="M3594 506 c-10 -25 0 -51 21 -54 20 -4 20 -4 0 12 -20 15 -20 15 3
16 17 0 23 5 20 17 -4 23 -36 29 -44 9z"/>
<path d="M3653 504 c-4 -10 1 -20 13 -27 17 -10 17 -11 -1 -18 -19 -7 -18 -8
3 -8 15 -1 22 5 22 18 0 11 -6 22 -12 24 -10 4 -10 6 0 6 7 1 10 6 7 11 -9 15
-25 12 -32 -6z"/>
<path d="M3050 486 c0 -14 5 -28 10 -31 6 -4 10 7 10 24 0 17 -4 31 -10 31 -5
0 -10 -11 -10 -24z"/>
<path d="M3700 493 c1 -50 53 -59 58 -10 2 15 -1 27 -7 27 -6 0 -11 -12 -11
-26 0 -14 -4 -23 -10 -19 -5 3 -10 15 -10 26 0 10 -4 19 -10 19 -5 0 -10 -8
-10 -17z"/>
<path d="M5335 503 c-33 -2 -64 -8 -68 -12 -5 -5 63 -76 149 -159 87 -83 160
-150 162 -148 2 2 -11 77 -29 165 l-32 161 -61 -2 c-34 -1 -88 -3 -121 -5z"/>
<path d="M5692 465 c-7 -22 -30 -101 -51 -175 -33 -110 -38 -138 -28 -151 102
-142 99 -138 150 -139 34 0 47 4 47 15 0 13 -96 458 -104 480 -2 6 -8 -8 -14
-30z"/>
<path d="M4782 448 c-48 -26 -74 -47 -77 -61 -5 -23 -45 -360 -45 -377 0 -7
25 -10 67 -8 l66 3 89 140 c48 77 88 143 88 148 0 9 -100 186 -109 191 -4 3
-39 -13 -79 -36z"/>
<path d="M5114 393 l-118 -97 55 -13 c30 -7 159 -37 287 -66 l232 -53 -32 34
c-18 18 -94 92 -169 163 l-137 129 -118 -97z"/>
<path d="M2650 460 c0 -5 5 -10 10 -10 6 0 10 5 10 10 0 6 -4 10 -10 10 -5 0
-10 -4 -10 -10z"/>
<path d="M3460 460 c0 -5 5 -10 10 -10 6 0 10 5 10 10 0 6 -4 10 -10 10 -5 0
-10 -4 -10 -10z"/>
<path d="M4350 213 c-184 -101 -346 -190 -360 -198 -22 -12 17 -14 315 -15
l341 0 23 196 c12 107 21 197 19 198 -1 1 -154 -80 -338 -181z"/>
<path d="M5006 268 c5 -7 45 -70 91 -140 l83 -128 165 0 165 0 36 71 c19 39
33 73 31 75 -3 4 -562 134 -574 134 -2 0 -1 -6 3 -12z"/>
<path d="M4894 143 c-43 -70 -80 -130 -82 -135 -2 -4 37 -8 87 -8 l90 0 -6
132 c-3 73 -7 134 -8 136 -1 1 -37 -55 -81 -125z"/>
<path d="M4994 165 c3 -55 6 -115 6 -132 l0 -33 80 0 c44 0 80 2 80 5 0 5
-159 247 -167 255 -3 3 -3 -40 1 -95z"/>
<path d="M5562 75 c-17 -36 -32 -68 -32 -70 0 -3 39 -5 86 -5 l85 0 -30 43
c-17 23 -41 55 -54 70 l-22 28 -33 -66z"/>
</g>
</svg>
